<svg width="120" height="60" viewBox="0 0 120 60" fill="none" xmlns="http://www.w3.org/2000/svg">
    <g clip-path="url(#clip0_1_2)">
        <rect width="120" height="60" fill="#EECACA"/>
        <path d="M29.5 20.464C30.0673 20.464 30.5043 20.625 30.811 20.947C31.133 21.2537 31.294 21.6753 31.294 22.212C31.294 23.408 30.581 24.5197 29.155 25.547C27.729 26.559 26.1037 27.065 24.279 27.065C23.4817 27.065 22.6383 26.95 21.749 26.72C21.1663 27.6707 20.875 28.7057 20.875 29.825C20.875 30.929 21.1817 31.826 21.795 32.516C22.4083 33.1907 23.3053 33.528 24.486 33.528C26.602 33.528 27.9897 32.2937 28.649 29.825H29.73C29.5613 31.251 28.8867 32.5083 27.706 33.597C26.5407 34.6857 24.9997 35.23 23.083 35.23C22.071 35.23 21.128 34.862 20.254 34.126C19.38 33.3747 18.943 32.2937 18.943 30.883C18.943 29.4723 19.4797 27.9313 20.553 26.26C19.771 25.8 19.15 25.2327 18.69 24.558L19.311 23.868C19.4183 23.9753 19.564 24.1363 19.748 24.351C20.1007 24.765 20.576 25.1253 21.174 25.432C22.0787 24.1747 23.3897 23.0323 25.107 22.005C26.8397 20.9777 28.304 20.464 29.5 20.464ZM24.21 26.145C25.544 26.145 26.717 25.8307 27.729 25.202C28.741 24.5733 29.247 23.8373 29.247 22.994C29.247 22.7027 29.1397 22.4727 28.925 22.304C28.7257 22.12 28.465 22.028 28.143 22.028C27.2077 22.028 26.165 22.4037 25.015 23.155C23.865 23.891 22.9527 24.7803 22.278 25.823C22.83 26.0377 23.474 26.145 24.21 26.145ZM42.0902 32.677L42.6192 33.068C42.4045 33.528 42.0058 33.965 41.4232 34.379C40.8558 34.793 40.3345 35 39.8592 35C38.9545 35 38.5022 34.5247 38.5022 33.574C38.5022 33.1293 38.6172 32.6003 38.8472 31.987L37.9962 32.861C37.1682 33.7043 36.4475 34.2717 35.8342 34.563C35.2362 34.8543 34.6458 35 34.0632 35C33.4805 35 33.0358 34.839 32.7292 34.517C32.4378 34.1797 32.2922 33.7197 32.2922 33.137C32.2922 32.0637 32.7062 31.0057 33.5342 29.963C34.3622 28.905 35.4202 28.0463 36.7082 27.387C37.9962 26.7277 39.2842 26.3903 40.5722 26.375L40.6182 27.134L39.6522 27.341C38.2568 27.6477 37.0225 28.261 35.9492 29.181C34.8912 30.101 34.3622 31.021 34.3622 31.941C34.3622 32.8457 34.7302 33.298 35.4662 33.298C36.1562 33.298 37.0072 32.815 38.0192 31.849C39.0312 30.883 39.8745 29.7483 40.5492 28.445L41.5152 29.02C40.5645 30.9367 40.0892 32.1557 40.0892 32.677C40.0892 32.8917 40.1582 33.0757 40.2962 33.229C40.4495 33.367 40.5952 33.436 40.7332 33.436C40.8865 33.436 40.9862 33.4283 41.0322 33.413C41.0782 33.3977 41.1242 33.3823 41.1702 33.367C41.2162 33.3363 41.2698 33.298 41.3312 33.252C41.4078 33.206 41.4692 33.16 41.5152 33.114C41.5765 33.068 41.6685 32.999 41.7912 32.907C41.9138 32.815 42.0135 32.7383 42.0902 32.677ZM46.5924 32.792L47.0754 33.183C46.5541 33.9957 46.1017 34.586 45.7184 34.954C45.3504 35.3067 44.9364 35.483 44.4764 35.483C44.0164 35.483 43.6407 35.299 43.3494 34.931C43.0581 34.563 42.9124 34.103 42.9124 33.551C42.9124 32.4777 43.6177 30.17 45.0284 26.628C46.4391 23.0707 47.8881 19.9427 49.3754 17.244L50.3874 17.796C48.8847 20.7093 47.5277 23.6073 46.3164 26.49C45.1051 29.3573 44.4994 31.4197 44.4994 32.677C44.4994 33.3977 44.7677 33.758 45.3044 33.758C45.7337 33.758 46.1631 33.436 46.5924 32.792ZM55.6886 32.286L56.2176 32.7C55.7422 33.3593 55.0906 33.9113 54.2626 34.356C53.4346 34.7853 52.6296 35 51.8476 35C51.0656 35 50.4369 34.77 49.9616 34.31C49.4862 33.85 49.2486 33.2443 49.2486 32.493C49.2486 31.0823 49.9922 29.6947 51.4796 28.33C52.9822 26.9653 54.5002 26.283 56.0336 26.283C57.0456 26.283 57.5516 26.6817 57.5516 27.479C57.5516 28.307 57.0149 29.1427 55.9416 29.986C54.8836 30.8293 53.3886 31.596 51.4566 32.286C51.5946 32.6387 51.8092 32.9147 52.1006 33.114C52.3919 33.3133 52.6909 33.413 52.9976 33.413C53.6569 33.413 54.5539 33.0373 55.6886 32.286ZM51.3416 31.596C52.5836 31.1667 53.6492 30.63 54.5386 29.986C55.4279 29.342 55.8726 28.7517 55.8726 28.215C55.8726 28.0157 55.7959 27.8393 55.6426 27.686C55.4892 27.5327 55.3129 27.456 55.1136 27.456C54.3929 27.456 53.6109 27.9083 52.7676 28.813C51.9396 29.7023 51.4642 30.63 51.3416 31.596ZM67.6453 32.217L68.1283 32.585C67.791 33.2597 67.3233 33.827 66.7253 34.287C66.1427 34.747 65.6137 34.977 65.1383 34.977C64.663 34.977 64.2873 34.839 64.0113 34.563C63.7353 34.287 63.5973 33.942 63.5973 33.528C63.5973 33.114 63.858 32.3933 64.3793 31.366C64.916 30.3233 65.1843 29.5567 65.1843 29.066C65.1843 28.8513 65.0923 28.6597 64.9083 28.491C64.7397 28.307 64.5327 28.215 64.2873 28.215C63.5053 28.215 62.7157 28.813 61.9183 30.009C61.121 31.1897 60.2317 32.8993 59.2503 35.138L57.8703 34.655C58.1617 32.8763 58.5757 31.1437 59.1123 29.457C59.6643 27.755 60.1703 26.536 60.6303 25.8L61.5733 26.099C61.144 27.1877 60.5997 29.066 59.9403 31.734C62.0563 28.1153 64.0037 26.306 65.7823 26.306C66.1657 26.306 66.48 26.4363 66.7253 26.697C66.986 26.9577 67.1163 27.2643 67.1163 27.617C67.1163 27.9697 67.0703 28.2917 66.9783 28.583C66.8863 28.859 66.595 29.5183 66.1043 30.561C65.629 31.5883 65.3913 32.2323 65.3913 32.493C65.3913 32.7537 65.468 32.9607 65.6213 33.114C65.7747 33.252 65.9203 33.321 66.0583 33.321C66.1963 33.321 66.3113 33.298 66.4033 33.252C66.4953 33.206 66.595 33.137 66.7023 33.045C66.825 32.953 66.9323 32.8687 67.0243 32.792C67.1163 32.7153 67.2237 32.6157 67.3463 32.493C67.4843 32.355 67.584 32.263 67.6453 32.217ZM81.6493 18.003L82.8223 18.417L82.5003 19.015C80.8136 22.1583 79.3799 25.202 78.1993 28.146C77.4173 30.078 77.0263 31.527 77.0263 32.493C77.0263 32.7383 77.0876 32.9377 77.2103 33.091C77.3329 33.229 77.5246 33.298 77.7853 33.298C78.0613 33.298 78.3756 33.1217 78.7283 32.769L79.1423 33.16C78.9429 33.6047 78.5979 34.0187 78.1073 34.402C77.6166 34.77 77.1413 34.954 76.6813 34.954C75.7919 34.954 75.3473 34.4327 75.3473 33.39C75.3473 32.7767 75.5159 31.8337 75.8533 30.561C74.0439 33.7197 72.2729 35.299 70.5403 35.299C69.9423 35.299 69.4669 35.115 69.1143 34.747C68.7616 34.379 68.5853 33.8807 68.5853 33.252C68.5853 32.2553 68.9839 31.2203 69.7813 30.147C70.5786 29.0737 71.5599 28.1997 72.7253 27.525C73.8906 26.835 74.9793 26.49 75.9913 26.49L76.0603 27.295C74.7416 27.4637 73.5073 28.0387 72.3573 29.02C71.2226 29.986 70.6553 30.975 70.6553 31.987C70.6553 32.4163 70.7703 32.7613 71.0003 33.022C71.2303 33.2673 71.5293 33.39 71.8973 33.39C72.6486 33.39 73.6299 32.585 74.8413 30.975C75.2859 30.3923 75.7919 29.5413 76.3593 28.422C76.9419 27.3027 77.4019 26.4057 77.7393 25.731C78.0919 25.041 78.4293 24.374 78.7513 23.73C79.0886 23.0707 79.5256 22.212 80.0623 21.154C80.5989 20.0807 81.1279 19.0303 81.6493 18.003ZM91.3919 32.677L91.9209 33.068C91.7063 33.528 91.3076 33.965 90.7249 34.379C90.1576 34.793 89.6363 35 89.1609 35C88.2563 35 87.8039 34.5247 87.8039 33.574C87.8039 33.1293 87.9189 32.6003 88.1489 31.987L87.2979 32.861C86.4699 33.7043 85.7493 34.2717 85.1359 34.563C84.5379 34.8543 83.9476 35 83.3649 35C82.7823 35 82.3376 34.839 82.0309 34.517C81.7396 34.1797 81.5939 33.7197 81.5939 33.137C81.5939 32.0637 82.0079 31.0057 82.8359 29.963C83.6639 28.905 84.7219 28.0463 86.0099 27.387C87.2979 26.7277 88.5859 26.3903 89.8739 26.375L89.9199 27.134L88.9539 27.341C87.5586 27.6477 86.3243 28.261 85.2509 29.181C84.1929 30.101 83.6639 31.021 83.6639 31.941C83.6639 32.8457 84.0319 33.298 84.7679 33.298C85.4579 33.298 86.3089 32.815 87.3209 31.849C88.3329 30.883 89.1763 29.7483 89.8509 28.445L90.8169 29.02C89.8663 30.9367 89.3909 32.1557 89.3909 32.677C89.3909 32.8917 89.4599 33.0757 89.5979 33.229C89.7513 33.367 89.8969 33.436 90.0349 33.436C90.1883 33.436 90.2879 33.4283 90.3339 33.413C90.3799 33.3977 90.4259 33.3823 90.4719 33.367C90.5179 33.3363 90.5716 33.298 90.6329 33.252C90.7096 33.206 90.7709 33.16 90.8169 33.114C90.8783 33.068 90.9703 32.999 91.0929 32.907C91.2156 32.815 91.3153 32.7383 91.3919 32.677ZM98.7462 26.858C99.1295 26.858 99.4438 26.9883 99.6892 27.249C99.9345 27.5097 100.057 27.847 100.057 28.261C100.057 29.089 99.5818 29.963 98.6312 30.883L98.0792 30.446C98.2938 29.9707 98.4012 29.6257 98.4012 29.411C98.4012 28.997 98.1712 28.79 97.7112 28.79C97.2512 28.79 96.8142 29.0813 96.4002 29.664C95.9862 30.2467 95.4955 31.1513 94.9282 32.378C94.3762 33.5893 93.9545 34.448 93.6632 34.954L92.3522 34.379C93.1955 32.4623 93.6785 31.3353 93.8012 30.998C94.2152 29.802 94.4222 28.284 94.4222 26.444L95.7102 26.099C95.6642 27.0957 95.5952 27.87 95.5032 28.422C95.4112 28.9587 95.1888 29.8403 94.8362 31.067C96.3848 28.261 97.6882 26.858 98.7462 26.858Z"
              fill="black"/>
        <ellipse cx="-1.5" cy="30" rx="11.5" ry="30" fill="#963E3E"/>
        <path d="M132 30C132 46.5685 126.851 60 120.5 60C114.149 60 109 46.5685 109 30C109 13.4315 114.149 0 120.5 0C126.851 0 132 13.4315 132 30Z"
              fill="#963E3E"/>
        <path d="M120 61.5C120 67.8513 93.1371 73 60 73C26.8629 73 0 67.8513 0 61.5C0 55.1487 26.8629 50 60 50C93.1371 50 120 55.1487 120 61.5Z"
              fill="#963E3E"/>
        <path d="M120 -1.5C120 4.85127 93.1371 10 60 10C26.8629 10 0 4.85127 0 -1.5C0 -7.85127 26.8629 -13 60 -13C93.1371 -13 120 -7.85127 120 -1.5Z"
              fill="#963E3E"/>
    </g>
    <defs>
        <clipPath id="clip0_1_2">
            <rect width="120" height="60" fill="white"/>
        </clipPath>
    </defs>
</svg>
